<svg xmlns="http://www.w3.org/2000/svg" xmlns:xlink="http://www.w3.org/1999/xlink" version="1.1" width="595.276" height="841.89" viewBox="0 0 595.276 841.89">
<defs>
<clipPath id="clip_155829">
<path transform="matrix(1,0,0,-1,0,841.89)" d="M0 0H595.276V841.89H0Z"/>
</clipPath>
<clipPath id="clip_155830">
<path transform="matrix(1,0,0,-1,0,841.89)" d="M0 0H595.276V841.89H0Z"/>
</clipPath>
</defs>
<g clip-path="url(#clip_155829)">
<path transform="matrix(1,0,0,-1,0,841.89)" d="M-8.504-8.504H603.779V850.394H-8.504Z" fill="#292640"/>
</g>
<text fill="#ffffff" xml:space="preserve" transform="matrix(1 0 -0 1 0 841.89)" font-size="84" font-family="NotoSans" font-weight="bold"><tspan y="-527.54" x="42.5197 88.88771 140.46372 194.39173 231.26773 253.10773 287.21174 311.31974 353.40376 402.79576 451.59974 485.70375">Your ticket </tspan></text>
<text fill="#ffffff" xml:space="preserve" transform="matrix(1 0 -0 1 0 841.89)" font-size="84" font-family="NotoSans" font-weight="bold"><tspan y="-426.7401" x="42.5197 76.6237 128.1997 149.7457 216.1057 270.0337 319.4257 373.3537 407.4577 461.3857 542.3617">to Quantum.</tspan></text>
<text fill="#ffffff" xml:space="preserve" transform="matrix(1 0 -0 1 0 841.89)" font-size="14.4" font-family="NotoSans" font-weight="bold"><tspan y="-77.0797" x="42.5197">C</tspan></text>
<text fill="#ffffff" xml:space="preserve" transform="matrix(1 0 -0 1 0 841.89)" font-size="14.4" font-family="NotoSans"><tspan y="-77.0797" x="51.6924 60.274805 67.014 71.91 80.406009 93.2796 96.6204 103.2876 111.2364 119.862 123.606 130.3452 138.294 143.9676 150.7212 154.06201 160.91641">ustomized service</tspan></text>
<text fill="#ffffff" xml:space="preserve" transform="matrix(1 0 -0 1 0 841.89)" font-size="14.4" font-family="NotoSans" font-weight="bold"><tspan y="-59.7997" x="42.5197">C</tspan></text>
<text fill="#ffffff" xml:space="preserve" transform="matrix(1 0 -0 1 0 841.89)" font-size="14.4" font-family="NotoSans"><tspan y="-59.7997" x="51.6924 60.274805 67.014 71.91 80.406009 93.2796 96.6204 103.2876 111.2364 119.862 123.606 130.3452 138.8412 142.182 150.7644 155.6604 159.0012 167.49721">ustomized solution</tspan></text>
<text fill="#ffffff" xml:space="preserve" transform="matrix(1 0 -0 1 0 841.89)" font-size="14.4" font-family="NotoSans" font-weight="bold"><tspan y="-42.5197" x="42.5197">C</tspan></text>
<text fill="#ffffff" xml:space="preserve" transform="matrix(1 0 -0 1 0 841.89)" font-size="14.4" font-family="NotoSans"><tspan y="-42.5197" x="51.6924 60.274805 65.9484 71.334 79.2828 87.8652 92.7612 96.102 102.8556 106.5996 109.9404 117.6588 123.189838 131.81543 139.76424 146.50344 151.39943 155.14344 165.46823 169.21224 173.66184 181.38024 188.11943 193.01543 200.96424 207.70343">urrently largest &#x0026; fastest</tspan></text>
<text fill="#ffffff" xml:space="preserve" transform="matrix(1 0 -0 1 0 841.89)" font-size="8.4" font-family="NotoSans" font-weight="bold"><tspan y="-94.1209" x="392.126 398.8124 404.78483 410.5472 418.6868 425.6588 432.656 436.1 441.2744 446.2976 452.816 455.336 461.006 466.7684 471.9932 478.9652 485.3996 490.4228 497.41999 500.86399 506.534 511.49 514.01 519.51199 526.14797 528.8276 531.5072 534.0272 538.8152 543.9392 550.1216">HARMONIZED CRYOGENICS CO., LTD.</tspan></text>
<text fill="#ffffff" xml:space="preserve" transform="matrix(1 0 -0 1 0 841.89)" font-size="8.4" font-family="NotoSans"><tspan y="-84.0409" x="392.126 397.6532 402.7016 406.5068 414.6968 420.1148 425.642 428.1452 432.4292 437.5028 443.00483 447.37284 451.17805 455.79804 461.21604 463.80323 468.17124 473.58924">harmonizedcryo.com</tspan></text>
<text fill="#ffffff" xml:space="preserve" transform="matrix(1 0 -0 1 0 841.89)" font-size="8.4" font-family="NotoSans"><tspan y="-63.8809" x="392.126 398.51 403.592 405.8432 408.0272 412.832 417.6368 419.888 422.072 428.1872 432.8996 438.0908 442.1228 447.314 452.0516 457.2428 462.40879 464.59278 469.81758 474.98356 477.23475 479.48594">No. 14, Gancheng Rd., </tspan></text>
<text fill="#ffffff" xml:space="preserve" transform="matrix(1 0 -0 1 0 841.89)" font-size="8.4" font-family="NotoSans"><tspan y="-53.8009" x="392.126 397.586 402.2984 407.4896 412.65559 414.82279 419.5352 424.6172 426.80119 432.93318 435.10038 439.12397 442.15638 444.40757 446.59156 452.97557 457.54518 464.14756 466.33155 470.32997 475.04237 477.20957 482.37556 487.11317 489.28038 491.46437 496.77317 498.94038 501.97279 506.25679 508.44078 513.24557 518.05038 522.85519 527.66 532.4648">Banqiao Dist, New Taipei City 220060</tspan></text>
<text fill="#ffffff" xml:space="preserve" transform="matrix(1 0 -0 1 0 841.89)" font-size="8.4" font-family="NotoSans"><tspan y="-53.8009" x="537.2675"> </tspan></text>
<text fill="#ffffff" xml:space="preserve" transform="matrix(1 0 -0 1 0 841.89)" font-size="8.4" font-family="NotoSans"><tspan y="-43.7209" x="392.126 396.12443 400.83683 403.00404 409.6064 414.31883">Taiwan</tspan></text>
<text fill="#ffffff" xml:space="preserve" transform="matrix(1 0 -0 1 0 841.89)" font-size="14.4" font-family="NotoSansCJKtc"><tspan y="-756.0839" x="76.234 94.666 113.098 131.53 149.962 168.39402 186.82602 205.25803 223.69004 242.12204 260.55406 278.98606">&#x701a;&#x6f20;&#x4f4e;&#x6eab;&#x79d1;&#x6280;&#x80a1;&#x4efd;&#x6709;&#x9650;&#x516c;&#x53f8;</tspan></text>
<text fill="#ffffff" xml:space="preserve" transform="matrix(1 0 -0 1 0 841.89)" font-size="18" font-family="NotoSans"><tspan y="-783.9442" x="76.234 90.292 101.11 109.264 126.814 138.42401 150.268 155.632 164.81201 175.684 187.474 192.874 204.97 213.12401 223.02402 234.63402 246.42401 257.29603 269.14 274.50404 283.864">Harmonized Cryogenics</tspan></text>
<g clip-path="url(#clip_155830)">
<path transform="matrix(1,0,0,-1,70.8509,70.414)" d="M0 0C-.484 0-.988 0-1.466-.121-1.964-.248-2.365-.49-2.706-.875-3.032-1.243-3.263-1.694-3.443-2.143-3.626-2.603-3.761-3.072-3.878-3.551-4.101-4.466-4.274-5.523-4.412-6.453-4.557-7.426-4.684-8.401-4.816-9.375-4.875-9.818-5.017-10.28-5.266-10.66-5.507-11.028-5.889-11.368-6.374-11.368-6.86-11.368-7.242-11.028-7.483-10.66-7.732-10.28-7.874-9.818-7.934-9.375-8.064-8.401-8.192-7.426-8.337-6.453-8.475-5.523-8.648-4.467-8.871-3.552-8.988-3.073-9.123-2.603-9.307-2.143-9.486-1.693-9.717-1.242-10.045-.873-10.385-.49-10.786-.248-11.282-.122-11.761 0-12.265 0-12.749 0H-15.582C-16.226 0-16.866-.004-17.453-.385-17.697-.544-17.9-.747-18.074-.977-18.291-1.263-18.461-1.587-18.602-1.915-19.075-3.012-19.355-4.516-19.535-5.675-19.726-6.906-19.88-8.289-20.008-9.527-20.14-10.816-20.26-12.106-20.382-13.396-20.428-13.874-20.559-14.38-20.803-14.802-20.925-15.014-21.081-15.214-21.276-15.366-21.472-15.518-21.702-15.618-21.957-15.618-22.212-15.618-22.441-15.518-22.637-15.366-22.832-15.214-22.988-15.014-23.11-14.803-23.354-14.38-23.486-13.874-23.531-13.396-23.654-12.107-23.773-10.818-23.905-9.53-24.033-8.291-24.188-6.908-24.379-5.676-24.558-4.517-24.839-3.012-25.311-1.915-25.452-1.588-25.623-1.263-25.84-.977-26.014-.746-26.217-.543-26.461-.385-27.048-.004-27.688 0-28.331 0V1.594C-28.255 1.594-28.179 1.594-28.103 1.593-28.03 1.593-27.958 1.591-27.885 1.589-27.723 1.585-27.561 1.576-27.4 1.56-27.312 1.551-27.224 1.54-27.137 1.526-27.044 1.512-26.952 1.495-26.861 1.475-26.665 1.432-26.473 1.376-26.286 1.304-26.086 1.227-25.893 1.134-25.71 1.024-25.616 .968-25.524 .908-25.435 .843-25.345 .778-25.258 .709-25.174 .636-25.005 .49-24.849 .329-24.706 .157-24.561-.016-24.429-.201-24.309-.393-24.187-.589-24.077-.792-23.977-1-23.873-1.217-23.78-1.438-23.695-1.663-23.651-1.78-23.61-1.897-23.57-2.015-23.499-2.226-23.435-2.439-23.375-2.653-23.301-2.918-23.234-3.185-23.173-3.454-23.107-3.742-23.048-4.031-22.993-4.321-22.935-4.631-22.882-4.941-22.832-5.252-22.78-5.58-22.731-5.909-22.686-6.239-22.638-6.587-22.594-6.935-22.551-7.284-22.507-7.65-22.465-8.017-22.425-8.384-22.34-9.156-22.262-9.929-22.187-10.701-22.109-11.507-22.033-12.312-21.957-13.118-21.88-12.312-21.805-11.507-21.726-10.701-21.688-10.312-21.65-9.924-21.61-9.535-21.571-9.151-21.531-8.768-21.489-8.384-21.449-8.017-21.407-7.65-21.362-7.284-21.32-6.935-21.275-6.587-21.227-6.239-21.182-5.909-21.134-5.58-21.081-5.252-21.032-4.941-20.978-4.631-20.92-4.321-20.865-4.031-20.806-3.742-20.741-3.454-20.679-3.185-20.613-2.918-20.539-2.653-20.445-2.319-20.341-1.987-20.218-1.663-20.134-1.438-20.04-1.217-19.937-1-19.837-.792-19.727-.589-19.604-.393-19.484-.201-19.353-.017-19.208 .157-19.136 .243-19.061 .327-18.983 .407-18.905 .487-18.823 .563-18.739 .636-18.655 .709-18.568 .778-18.478 .843-18.39 .908-18.298 .968-18.204 1.024-18.02 1.134-17.827 1.227-17.627 1.304-17.441 1.376-17.248 1.432-17.052 1.475-16.961 1.495-16.869 1.512-16.777 1.526-16.689 1.54-16.601 1.551-16.513 1.56-16.352 1.576-16.19 1.585-16.029 1.589-15.956 1.591-15.883 1.593-15.81 1.593-15.734 1.594-15.658 1.594-15.582 1.594H-12.749C-12.603 1.594-12.456 1.594-12.31 1.591-12.16 1.588-12.01 1.582-11.86 1.572-11.697 1.561-11.535 1.544-11.373 1.52-11.2 1.494-11.029 1.459-10.859 1.415-10.68 1.368-10.503 1.31-10.331 1.239-10.242 1.203-10.154 1.163-10.068 1.121-9.98 1.077-9.894 1.03-9.81 .98-9.639 .879-9.475 .764-9.321 .637-9.166 .509-9.021 .37-8.885 .221-8.75 .072-8.625-.087-8.51-.252-8.394-.419-8.288-.592-8.191-.77-8.057-1.017-7.939-1.272-7.834-1.533-7.754-1.732-7.682-1.933-7.615-2.137-7.547-2.348-7.484-2.561-7.426-2.775-7.365-3-7.309-3.225-7.257-3.451-7.203-3.688-7.154-3.926-7.107-4.165-7.058-4.414-7.012-4.664-6.968-4.915-6.923-5.176-6.88-5.438-6.839-5.701-6.754-6.245-6.677-6.791-6.601-7.336-6.524-7.894-6.449-8.453-6.374-9.011-6.299-8.453-6.225-7.894-6.148-7.336-6.11-7.064-6.072-6.792-6.033-6.521-5.993-6.247-5.952-5.974-5.91-5.701-5.869-5.438-5.826-5.176-5.781-4.915-5.737-4.664-5.691-4.414-5.642-4.165-5.596-3.926-5.546-3.688-5.492-3.451-5.44-3.225-5.384-3-5.323-2.775-5.265-2.561-5.203-2.348-5.134-2.136-5.067-1.933-4.995-1.732-4.915-1.534-4.81-1.272-4.693-1.017-4.558-.77-4.461-.592-4.355-.419-4.24-.252-4.124-.087-3.999 .072-3.864 .221-3.729 .37-3.583 .509-3.427 .637-3.35 .701-3.271 .761-3.189 .819-3.108 .876-3.024 .93-2.939 .98-2.855 1.03-2.769 1.077-2.681 1.121-2.595 1.163-2.507 1.203-2.418 1.239-2.246 1.31-2.069 1.368-1.89 1.415-1.721 1.459-1.549 1.494-1.376 1.52-1.214 1.544-1.052 1.561-.889 1.572-.739 1.582-.589 1.588-.439 1.591-.293 1.594-.146 1.594 0 1.594Z" fill="#ffffff"/>
<path transform="matrix(1,0,0,-1,42.5197,66.23523)" d="M0 0C.484 0 .988 0 1.466 .121 1.964 .248 2.365 .49 2.706 .875 3.032 1.243 3.263 1.694 3.443 2.143 3.626 2.603 3.761 3.073 3.878 3.551 4.101 4.466 4.274 5.523 4.412 6.453 4.557 7.426 4.684 8.401 4.816 9.375 4.875 9.818 5.017 10.28 5.266 10.66 5.507 11.028 5.889 11.368 6.374 11.368 6.86 11.368 7.242 11.028 7.483 10.66 7.732 10.28 7.874 9.818 7.934 9.375 8.064 8.401 8.192 7.426 8.337 6.453 8.475 5.523 8.648 4.467 8.871 3.552 8.988 3.073 9.123 2.603 9.307 2.143 9.486 1.693 9.717 1.242 10.044 .873 10.385 .49 10.786 .248 11.282 .122 11.761 0 12.265 0 12.749 0H15.582C16.226 0 16.866 .004 17.453 .386 17.697 .544 17.9 .747 18.074 .977 18.291 1.263 18.461 1.587 18.602 1.915 19.075 3.012 19.355 4.516 19.535 5.675 19.726 6.906 19.88 8.289 20.008 9.527 20.14 10.816 20.26 12.106 20.382 13.396 20.428 13.874 20.559 14.38 20.803 14.803 20.925 15.014 21.081 15.214 21.276 15.366 21.472 15.518 21.702 15.618 21.957 15.618 22.212 15.618 22.441 15.518 22.637 15.366 22.832 15.214 22.988 15.014 23.11 14.803 23.354 14.38 23.486 13.874 23.531 13.396 23.654 12.107 23.773 10.818 23.905 9.53 24.033 8.291 24.188 6.908 24.379 5.676 24.558 4.517 24.839 3.012 25.311 1.915 25.452 1.588 25.623 1.263 25.84 .977 26.014 .746 26.217 .543 26.461 .385 27.048 .004 27.688 0 28.331 0V-1.594C28.255-1.594 28.179-1.594 28.103-1.593 28.03-1.592 27.958-1.591 27.885-1.589 27.723-1.585 27.561-1.576 27.4-1.56 27.312-1.551 27.224-1.54 27.137-1.526 27.044-1.512 26.952-1.495 26.861-1.475 26.666-1.432 26.473-1.375 26.286-1.304 26.086-1.227 25.893-1.134 25.71-1.024 25.616-.968 25.524-.908 25.435-.843 25.345-.778 25.258-.709 25.174-.636 25.005-.49 24.849-.329 24.706-.157 24.561 .016 24.429 .201 24.309 .393 24.187 .589 24.077 .792 23.977 1 23.873 1.217 23.78 1.438 23.695 1.663 23.651 1.78 23.61 1.897 23.57 2.015 23.499 2.226 23.434 2.439 23.375 2.653 23.301 2.918 23.234 3.185 23.173 3.454 23.107 3.742 23.048 4.031 22.993 4.321 22.935 4.631 22.882 4.941 22.832 5.252 22.78 5.58 22.731 5.909 22.686 6.239 22.638 6.587 22.594 6.935 22.551 7.284 22.507 7.65 22.465 8.017 22.424 8.384 22.34 9.156 22.262 9.929 22.187 10.701 22.109 11.507 22.033 12.312 21.957 13.118 21.88 12.312 21.805 11.507 21.726 10.701 21.688 10.313 21.65 9.924 21.61 9.535 21.571 9.151 21.531 8.768 21.489 8.384 21.449 8.017 21.407 7.65 21.362 7.284 21.32 6.935 21.275 6.587 21.227 6.239 21.182 5.909 21.134 5.58 21.081 5.252 21.032 4.941 20.979 4.631 20.92 4.321 20.865 4.031 20.806 3.742 20.74 3.454 20.679 3.185 20.613 2.918 20.539 2.653 20.445 2.319 20.341 1.987 20.218 1.663 20.134 1.438 20.041 1.217 19.937 1 19.837 .792 19.727 .589 19.604 .393 19.484 .201 19.353 .017 19.208-.157 19.136-.243 19.061-.326 18.983-.407 18.905-.487 18.823-.563 18.739-.636 18.655-.709 18.568-.778 18.478-.843 18.39-.908 18.298-.968 18.204-1.024 18.02-1.134 17.827-1.227 17.627-1.304 17.441-1.376 17.248-1.432 17.052-1.475 16.961-1.495 16.869-1.512 16.777-1.526 16.689-1.54 16.601-1.551 16.513-1.56 16.352-1.576 16.19-1.585 16.029-1.589 15.956-1.591 15.883-1.592 15.81-1.593 15.734-1.594 15.658-1.594 15.582-1.594H12.749C12.603-1.594 12.456-1.594 12.31-1.591 12.16-1.588 12.01-1.582 11.86-1.572 11.697-1.561 11.535-1.544 11.373-1.52 11.2-1.494 11.028-1.459 10.859-1.415 10.68-1.368 10.503-1.31 10.331-1.239 10.242-1.203 10.154-1.163 10.068-1.121 9.98-1.077 9.894-1.03 9.81-.98 9.639-.879 9.475-.764 9.321-.637 9.166-.509 9.021-.37 8.885-.221 8.75-.072 8.625 .087 8.51 .252 8.394 .419 8.288 .592 8.191 .77 8.057 1.017 7.939 1.273 7.834 1.534 7.754 1.732 7.682 1.933 7.615 2.136 7.546 2.348 7.484 2.561 7.426 2.776 7.365 3 7.309 3.225 7.257 3.451 7.203 3.688 7.153 3.926 7.107 4.165 7.058 4.414 7.012 4.664 6.968 4.915 6.923 5.176 6.88 5.438 6.839 5.701 6.754 6.245 6.677 6.791 6.601 7.336 6.524 7.894 6.449 8.453 6.374 9.011 6.3 8.453 6.225 7.894 6.148 7.336 6.11 7.064 6.072 6.792 6.033 6.521 5.993 6.247 5.952 5.974 5.91 5.701 5.869 5.438 5.826 5.176 5.781 4.915 5.737 4.664 5.692 4.414 5.642 4.165 5.596 3.926 5.546 3.688 5.491 3.451 5.44 3.225 5.384 3 5.323 2.776 5.265 2.561 5.203 2.348 5.134 2.136 5.067 1.933 4.995 1.732 4.915 1.534 4.81 1.273 4.693 1.017 4.558 .77 4.461 .592 4.355 .419 4.24 .252 4.124 .087 3.999-.072 3.864-.221 3.729-.37 3.583-.509 3.427-.637 3.35-.701 3.271-.761 3.189-.819 3.108-.876 3.024-.93 2.939-.98 2.855-1.03 2.769-1.077 2.681-1.121 2.595-1.163 2.507-1.203 2.418-1.239 2.246-1.31 2.069-1.368 1.89-1.415 1.721-1.459 1.549-1.494 1.376-1.52 1.214-1.544 1.052-1.561 .889-1.572 .739-1.582 .589-1.588 .439-1.591 .293-1.594 .146-1.594 0-1.594Z" fill="#ffffff"/>
</g>
</svg>
